<svg xmlns="http://www.w3.org/2000/svg" xmlns:xlink="http://www.w3.org/1999/xlink" width="0" height="0" viewBox="0 0 0 0"><svg fill="#000000;" width="false" height="false" id="climate" y="0"><path class="path1" d="M19.3 2C12.5 4.8 3.9 13.9 1.5 21-.9 28.2-.3 39.9 2.8 46.2c3 6 9 12 15 15 6.8 3.3 21.6 3.3 28.4 0 6-3 12-9 15-15 3.2-6.5 3.7-18.2 1.2-25.4-2.3-6.2-10-15-15.8-18C40.5-.4 26.4-.8 19.3 2zm21.6 2.1l3.2 1.1-4.2 3.6c-2.9 2.5-5.4 3.7-7.8 3.9-4.2.3-6.5 2.7-5 5.4 1.1 2.2-.1 2.5-3.2.9-1.6-.9-6.9-9.7-6.9-11.5 0-.3 1.9-1.5 4.3-2.5 4.8-2.2 14.6-2.6 19.6-.9zm11.6 7.6c11.3 10.9 11.3 29.5 0 40.8-6.2 6.2-10.9 8-20.5 8s-14.3-1.8-20.5-8C6 46.9 3.7 41.6 3.3 33c-.4-6.9-.2-8 2.9-13.9 1.8-3.5 4.3-7 5.4-7.8 2-1.3 2.3-1.1 5.2 3.9 2.9 5.3 5.3 7.1 10.2 8.2 2.8.6 5 5 5 10 0 1.5 1 4.4 2.2 6.5 2 3.5 2.1 4.2.9 7.9-2.3 7 .2 9.1 6.3 5.3 4.5-2.8 11.3-11.5 12-15.5.6-3 .1-4.2-3-8.3-3.5-4.6-9.4-8-11.5-6.7-.5.3-1.6-.2-2.5-1.1-1.5-1.5-1.5-1.7.5-3.1 1.1-.8 2.1-2.1 2.1-2.9 0-1.6 6.6-7.5 8.4-7.5.7 0 3 1.7 5.1 3.7zM38.9 26c4.2 0 5.5.9 9.3 6 2.3 3.2 2.5 3.9 1.3 6.5C48 42.1 39.9 51 38.1 51c-.8 0-.9-.5-.1-1.9 1.5-3 1.2-8.2-.7-10.3-.9-1.1-2-4.2-2.4-7.1-.3-2.9-.9-6.1-1.3-7.2-.7-1.8-.6-1.8.4-.3.7 1.2 2.4 1.8 4.9 1.8z"></path></svg><svg fill="#000000;" width="false" height="false" id="landcover" y="0"><path class="path1" d="M24.3 8.9C20.8 13.8 18 18 18 18.4c0 .3.9.6 2 .6 1.8 0 1.2 1.3-4 9-7.9 11.7-8 12-4.1 12 1.7 0 3.1.2 3.1.4s-2 3.9-4.5 8.2C8 53 6 57.1 6 57.7c0 1.6 1.4 1.6 12.5-.2C31.3 55.4 31 55.3 31 60c0 2.2.5 4 1 4 .6 0 1-1.8 1-4 0-4.7-.3-4.6 12.5-2.5 11.1 1.8 12.5 1.8 12.5.2 0-.6-2-4.7-4.5-9.1-2.5-4.3-4.5-8-4.5-8.2s1.4-.4 3.1-.4c3.9 0 3.8-.3-4.1-12-5.2-7.7-5.8-9-4-9 1.1 0 2-.3 2-.6C46 16.7 33.3.1 32 .1c-.8 0-4.3 4-7.7 8.8zm13.4 1.9c3.1 4.4 4 6.2 2.9 6.2-2.7 0-1.8 2.1 4.4 11.5l6 9-3 .3c-1.6.2-3 .5-3 .8s2.1 4.1 4.6 8.5c2.6 4.4 4.4 8.2 4.1 8.5-.6.6-18.3-1.8-19.9-2.7-.8-.5-.2-1.6 2-3.4 1.8-1.5 3.2-3.1 3.2-3.6 0-1.4-2.2-1-4.2.8-1.7 1.5-1.8 1.5-1.8-1.5 0-2.1.9-3.8 3-5.5 1.7-1.4 3-3 3-3.6 0-1.5-.6-1.4-3.5.5-2.5 1.6-2.5 1.6-2.5-1.4 0-2.3.9-3.7 3.2-5.6 2.4-1.8 3-2.8 2.2-3.6s-1.4-.6-2.4.5c-2.2 2.6-3 1.7-3-3.5 0-2.8-.4-5-1-5-.5 0-1 2.2-1 5 0 5.2-.8 6.1-3 3.5-1-1.1-1.6-1.3-2.4-.5s-.2 1.8 2.2 3.6c2.3 1.9 3.2 3.3 3.2 5.6 0 3 0 3-2.5 1.4-2.9-1.9-3.5-2-3.5-.5 0 .6 1.3 2.2 3 3.6 2.1 1.7 3 3.4 3 5.5 0 3-.1 3-1.8 1.5-2-1.8-4.2-2.2-4.2-.8 0 .5 1.4 2.1 3.2 3.6 2.2 1.8 2.8 2.9 2 3.4-1.6.9-19.3 3.3-19.9 2.7-.3-.3 1.5-4.1 4.1-8.5 2.5-4.4 4.6-8.2 4.6-8.5s-1.4-.6-3-.8l-3-.3 6-9c6.2-9.4 6.9-11.1 4.6-11.7-1-.2 0-2.2 3.1-6.6 2.5-3.5 5-6.1 5.5-6 .6.2 3 3.2 5.5 6.6z"></path></svg><svg fill="#000000;" width="false" height="false" id="lidcontrols" y="0"><path class="path1" d="M11 19.5c0 10.4.2 12.5 1.5 12.5S14 29.9 14 19.5 13.8 7 12.5 7 11 9.1 11 19.5z"></path><path class="path2" d="M31 12c0 3.7.4 5 1.3 4.7.7-.2 1.2-2.1 1.2-4.7s-.5-4.5-1.2-4.8C31.4 7 31 8.3 31 12z"></path><path class="path3" d="M50 17.5c0 8.7.3 10.5 1.5 10.5S53 26.2 53 17.5 52.7 7 51.5 7 50 8.8 50 17.5z"></path><path class="path4" d="M21 20c-2.7 2.7-2.5 5.6.5 8.5 1.6 1.7 3.5 2.5 6 2.5H31v13.1c0 10 .3 13 1.3 12.6.9-.3 1.2-3.8 1.2-13V31.2l3.7-.4c2.4-.2 3.4 0 2.8.6s-1 2.5-1 4.2c0 5 2.8 6.4 12.5 6.4 9.8 0 12.5-1.4 12.5-6.5 0-5-2.8-6.5-12.2-6.5h-7.7l.6-3.4c.4-2.6 0-3.9-1.6-5.5C41.3 18.3 39.8 18 32 18c-7.7 0-9.3.3-11 2zm19.5 2.4c1.1.8 1.6 1.9 1.2 3-.9 2.3-18.2 2.4-19.1.1-.3-.8.2-2.1 1-3 2-2 14.2-2.1 16.9-.1zM59.1 33c1 .6 1.9 1.7 1.9 2.5s-.9 1.9-1.9 2.5c-2.5 1.3-12.7 1.3-15.2 0-2.4-1.3-2.5-3.6-.1-4.9 2.2-1.4 12.8-1.4 15.3-.1z"></path><path class="path5" d="M1.6 35.6c-1.9 1.8-2.1 7.5-.4 9.2 1.9 1.9 20.2 1.6 22.2-.4s2-6.8 0-8.8c-2.2-2.3-19.6-2.3-21.8 0zM21 38.5c.7.8 1 2.2.6 3-.5 1.3-2.2 1.5-9.3 1.3-7.7-.3-8.8-.5-9.1-2.2-.6-2.8 1.5-3.6 9.4-3.6 5.1 0 7.5.4 8.4 1.5z"></path><path class="path6" d="M50 50c0 5.6.3 7 1.5 7s1.5-1.4 1.5-7-.3-7-1.5-7-1.5 1.4-1.5 7z"></path><path class="path7" d="M11 52c0 3.8.4 5 1.5 5s1.5-1.2 1.5-5-.4-5-1.5-5-1.5 1.2-1.5 5z"></path></svg><svg fill="#000000;" width="false" height="false" id="location" y="0"><path class="path1" d="M22.1 1.7c-5.3 2.7-10 8.1-11.6 13.6-3.3 11-1.5 16.4 10.9 34.6C26.8 57.7 31.5 64 32 64s5.4-6.6 10.9-14.6c11.6-16.9 13.3-21.7 11.3-31.2-1.4-6.7-4.4-11.4-9.7-14.9-5.2-3.5-17-4.4-22.4-1.6zm20 4.3c7.6 5 11.1 14.6 8.6 23.1C49.4 33.4 33.5 58 32 58S14.6 33.4 13.3 29.2c-1-3.7-1.1-5.8-.3-9.9 1.5-7.1 4-10.2 11.4-14.6C28.7 2.2 37.3 2.8 42.1 6z"></path><path class="path2" d="M26.2 16.3C21.8 21 24.1 29 30.4 30.6c5.4 1.3 11.5-4.8 10.2-10.2-1.6-6.4-10-8.8-14.4-4.1zm8.9 1.7c2.3 1.3 2.6 6.2.5 7.9-4.6 3.8-11.1-2.5-7.1-6.9 2-2.2 3.7-2.5 6.6-1z"></path></svg><svg fill="#000000;" width="false" height="false" id="polygon" y="0"><path class="path1" d="M16 1.735l14.999 10.898-5.729 17.633H6.73L1.001 12.633 16 1.735z"></path></svg><svg fill="#000000;" width="false" height="false" id="precipitation" y="0"><path class="path1" d="M22.5 5.7c-4.3 2.2-8.2 6.1-9.5 9.4-.7 1.6-1.7 2.9-2.2 2.9-2.6 0-8 3.6-9.3 6.1-2.4 4.6-1.9 11.2 1 14.8C6.2 43.2 14 45.4 14 42c0-.5-1.3-1.1-2.9-1.5C3.2 38.8.3 29.6 5.9 23.9c1.7-1.7 4-2.9 5.5-2.9 1.4 0 2.6-.4 2.6-.8 0-.5 1.3-2.9 3-5.3 5.3-8.1 15.1-10.3 22.6-5.3 5.4 3.6 5.7 4.5 2.4 6.5-5.9 3.6-5.1 6.4.9 3.1 4.5-2.6 8.1-2.8 12-.8 5.9 3.1 8.1 10.9 4.6 16.2-1.9 2.9-7.2 6.4-9.8 6.4-1.1 0-1.7.5-1.4 1.2.6 1.7 6.5 1.2 9.5-.8 5.8-3.8 8.1-14.3 4.5-20.4-1.9-3.3-8-7-11.5-7-1.5 0-3.2-1.1-4.6-3-4.8-6.4-16.6-9.1-23.7-5.3z"></path><path class="path2" d="M19.1 44.1c-1.4 4.2-1.4 4.9.3 4.9 1.2 0 3.6-4.7 3.6-7.1 0-2.3-2.9-.5-3.9 2.2z"></path><path class="path3" d="M29 43.6c-1.4 3.5-1.2 5.4.4 5.4 1.4 0 2.6-2.9 2.6-6.3 0-2.6-1.9-2.1-3 .9z"></path><path class="path4" d="M38.4 44.5c-.3 2-.4 3.9 0 4.2 1 1.1 2.5-1 3.2-4.5.5-2.5.3-3.2-.9-3.2-1 0-1.8 1.3-2.3 3.5z"></path><path class="path5" d="M15.4 55.5c-.3 2-.4 3.9 0 4.2 1 1.1 2.5-1 3.2-4.5.5-2.5.3-3.2-.9-3.2-1 0-1.8 1.3-2.3 3.5z"></path><path class="path6" d="M25.6 53.7c-.2 1-.7 2.8-1.1 4-1 3.7 2.1 2.8 3.4-.8 1.4-4.2 1.4-4.9-.3-4.9-.8 0-1.7.8-2 1.7z"></path><path class="path7" d="M35.7 52.7c-.3.5-.8 2.3-1.2 4.1-.5 2.4-.3 3.2.8 3.2 1.4 0 3.9-6.4 2.9-7.4-.8-.8-2-.7-2.5.1z"></path></svg><svg fill="#000000;" width="false" height="false" id="projectcost" y="0"><path class="path1" d="M21.4 1.1c-.2.4.1 2 .7 3.6.6 1.5 1.2 5.1 1.3 8 .2 5.2.2 5.3-6 11.3C9.8 31.5 6.9 37.2 6.8 44.9c-.1 8.6 4.5 15.4 12.1 18 4.4 1.4 21.8 1.4 26.2 0 7.6-2.6 12.2-9.4 12.1-18-.1-7.7-3-13.4-10.5-20.8-6.2-6-6.3-6.2-6.1-11.4.1-2.8.4-6.8.8-8.8l.7-3.5H32c-5.6 0-10.3.3-10.6.7zm16.5 5.4c-.5 1.6-.9 3.1-.9 3.2 0 .2-.4.3-1 .3-.5 0-1-1-1-2.1 0-1.8-.2-1.9-1.5-.9-1.2 1-1.8 1-3 0-1.3-1-1.5-.9-1.5.9 0 1.1-.4 2.1-.9 2.1-1.2 0-1.7-.8-2.4-4-.6-2.5-.6-2.5 6.2-2.5h6.8l-.8 3zm-2.6 7.2c-1.8.2-4.8.2-6.5 0-1.8-.2-.4-.4 3.2-.4s5 .2 3.3.4zM29 20c.5 0 1.4-.8 2-1.8 1-1.6 1-1.6 2 0 1.3 2.2 3 2.3 3 .3 0-2.2 15 14.3 16.7 18.3C56 44.7 54 53.7 48 58c-6.8 4.9-25.2 4.9-32 0-6-4.2-8-13.2-4.8-21 1.7-4.1 16.2-20 16.6-18.3.2.7.7 1.3 1.2 1.3z"></path><path class="path2" d="M23.6 28.9c-4.6 3-6.6 7-6.6 12.9C17 51.4 22.6 57 32 57s15-5.6 15-15.2C47 32.5 41.5 27 32 27c-3.7 0-6.4.6-8.4 1.9zm15.1 2.8c10.1 6.6 5.4 22.6-6.7 22.6-11 0-16.3-12.9-8.5-20.7 4.7-4.7 9.8-5.4 15.2-1.9z"></path><path class="path3" d="M31 32.8c0 .4-1 1.2-2.2 1.7-2.6 1.1-3.5 4.9-1.8 7 .6.7 2.6 1.6 4.5 1.9 2.1.4 3.5 1.3 3.5 2.1 0 2-5.6 2-6.4 0-.8-2.3-2.8-1.8-2.4.6.2 1.2 1.2 2.7 2.3 3.3s2.3 1.5 2.8 2.1c.5.7 1 .7 1.5 0 .4-.6 1.6-1.5 2.7-2.1 2.3-1.3 3.1-4.9 1.5-6.9-.6-.7-2.6-1.6-4.5-1.9-2.1-.4-3.5-1.3-3.5-2.1 0-2 5.6-2 6.4 0 .9 2.3 2.8 1.8 2.4-.8-.2-1.2-1.3-2.6-2.5-3.2C34 34 33 33.2 33 32.8c0-.5-.4-.8-1-.8-.5 0-1 .3-1 .8z"></path></svg><svg fill="#000000;" width="false" height="false" id="results" y="0"><path class="path1" d="M4 4.5C4 8.3 3.7 9 2 9c-1.1 0-2 .7-2 1.5S.9 12 2 12c1.6 0 2 .7 2 3.5S3.6 19 2 19c-1.1 0-2 .7-2 1.5S.9 22 2 22c1.5 0 2 .7 2 2.9 0 2-.6 3-2 3.4C-.6 29-.6 31 2 31c1.6 0 2 .7 2 3.5S3.6 38 2 38c-1.1 0-2 .7-2 1.5S.9 41 2 41c1.6 0 2 .7 2 3.5S3.6 48 2 48c-1.1 0-2 .7-2 1.5S.9 51 2 51c1.7 0 2 .7 2 4.5V60h8c7.3 0 8 .2 8 2 0 1.1.7 2 1.5 2s1.5-.9 1.5-2c0-1.9.7-2 11-2s11 .1 11 2c0 1.1.7 2 1.5 2s1.5-.9 1.5-2c0-1.8.7-2 8-2 6.4 0 8-.3 8-1.5 0-1.3-3.8-1.5-28.5-1.5H7V28.5C7 3.8 6.8 0 5.5 0 4.4 0 4 1.2 4 4.5z"></path><path class="path2" d="M35.7 9.7c-.4.3-.7 10.9-.7 23.5 0 19.6.2 22.8 1.5 22.8S38 52.9 38 34V12h7v22c0 18.9.2 22 1.5 22S48 53.4 48 39V22h8v17c0 14.4.2 17 1.5 17S59 53.3 59 37.5V19H48V9h-5.8c-3.2 0-6.2.3-6.5.7z"></path><path class="path3" d="M9.7 28.6c-.4.4-.7 6.7-.7 14.1C9 53.9 9.2 56 10.5 56S12 53.9 12 43.5V31h8v12.5c0 10.4.2 12.5 1.5 12.5 1.2 0 1.5-1.5 1.5-7.5V41h7v7.5c0 6 .3 7.5 1.5 7.5s1.5-1.7 1.5-9v-9h-9.9l-.3-4.8-.3-4.7-6-.3c-3.4-.2-6.4 0-6.8.4z"></path></svg><svg fill="#000000;" width="false" height="false" id="soildrainage" y="0"><path class="path1" d="M38.8 2.7c-1.8 1.4-6.3 5.6-10 9.2-7.8 7.6-8.5 10.2-4.2 16.5 2.3 3.3 2.4 3.8.8 3.1-1-.5-3.9-1-6.4-1.3-3.5-.3-5.3.2-8 2C7.6 34.5 5.7 38 7.9 38c.5 0 2.7-1.1 4.7-2.5s4.7-2.5 5.9-2.5c1.2 0 3.9 1.1 5.9 2.5s4.3 2.5 5 2.5c.7 0 2.2 1.3 3.4 3 3.8 5.1 6.2 4.2 16.9-6.2 13.3-13 14.4-16 7.8-20.4-2-1.3-2.5-2.5-2.5-5.6C55 .5 45.9-3 38.8 2.7zM50 5c1.1 1.1 2 2.9 2 4 0 1.8-.4 1.7-4.9-1.2-2.7-1.8-4.7-3.6-4.5-4C43.6 2.3 48 3 50 5zm-.5 8.5c4.7 3 8.5 5.9 8.5 6.3 0 1.3-16.8 19-19.1 20.3-1.7.9-2.7-.2-7.9-8.3-3.3-5.1-6-9.7-6-10.2C25 19.8 37.4 8 39.2 8c1 0 5.6 2.5 10.3 5.5z"></path><path class="path2" d="M5.7 47.2c-3.7 8.9-4 10.4-2.6 13C4.7 63.3 5.9 64 9.7 64c3.9 0 7.3-3 7.3-6.3-.1-3.5-5.6-16.2-7.2-16.5-1-.2-2.4 1.7-4.1 6zm6.7 6.6c1.5 4.3.6 7.2-2.2 7.2-4.3 0-5.2-3.6-2.5-10.1 1.8-4.5 2.2-4.3 4.7 2.9z"></path></svg><svg fill="#000000;" width="false" height="false" id="soiltype" y="0"><path class="path1" d="M36.7 7.7c-2.7.7-4.1 5.1-2.4 7.7 1.2 1.8 1.2 2.4 0 4.2-2.8 4.3 1.6 9.5 6.7 7.9 1.7-.5 2-.2 2 2.4 0 2.9-.2 3-3 2.4-2.2-.4-3-.2-3 .9 0 1.9 2 3.8 4.2 3.8 1.6 0 1.8.9 1.8 7.5V52h-7c-5.5 0-6.8-.3-6.4-1.4.3-.8 2.1-1.7 4-2 3.8-.8 5.4-3 5.4-7.5 0-3.5-1.2-4.5-3.7-3.2-1 .5-3 1.4-4.5 2-2.6 1-2.8 1.5-2.8 6.2 0 7-1.4 5.3-2-2.4-.5-6-.6-6.1-3.7-6.8-1.8-.3-3.9-1.1-4.6-1.8-1.9-1.5-2.7-.4-2.7 3.5 0 5 .9 6.3 4.8 7s5.2 1.8 5.2 4.6c0 2.5-3.8 2.3-5.8-.2-1.9-2.3-7.8-2.9-14.7-1.3-4.1.9-5.8 3.4-3.6 5.6 2 2 15.7 2.5 17.5.7.6-.6 10.2-1 23.3-1 14.2 0 22.3-.4 22.3-1s-4-1-10-1c-9.7 0-10-.1-10-2.3 0-1.6.9-2.6 3-3.4 1.7-.6 3-1.9 3-2.8 0-1.3-.7-1.6-3-1.3l-3 .5v-8.4c0-8.1.1-8.3 2-7.3 4.9 2.6 9.7-2.8 6.6-7.5-.9-1.4-1.2-2.5-.7-2.5 1.2 0 2.2-4.5 1.5-6.5-1.1-2.6-5.3-3.8-7.8-2.1-1.9 1.2-2.5 1.2-4.1 0-1-.8-2.1-1.3-2.4-1.3-.3.1-1.4.3-2.4.6zm4.1 2.5c.7.7 1.2 1.8 1.2 2.6 0 1.2-.3 1.2-1.5.2-2-1.7-3.2-.5-1.5 1.5 1 1.3.9 1.5-.9 1.5-1.1 0-2.1-.2-2.1-.4s-.3-1.1-.6-1.9c-.5-1.4 1.9-4.7 3.5-4.7.4 0 1.2.5 1.9 1.2zm9.6.4c2 1.9 2 2.9 0 4.8-1.9 2-4 1-2.3-1 1.6-1.9.4-3-1.6-1.4-1.2 1-1.5 1-1.5-.2 0-1.5 1.9-3.8 3.1-3.8.4 0 1.5.7 2.3 1.6zm-6 7.5c-.3.5-1 .7-1.5.3-.5-.3-.7-1-.3-1.5.3-.5 1-.7 1.5-.3.5.3.7 1 .3 1.5zM39 20.5c-1.6 2-.5 3.2 1.4 1.6 2-1.7 3 .4 1 2.3-.8.9-1.9 1.6-2.4 1.6-1 0-4-2.9-4-3.9 0-1.2 2.3-3.1 3.8-3.1 1.2 0 1.2.3.2 1.5zm12.4.7c.8 1.4.7 2.2-.7 3.5-2 2.1-5 .9-5.6-2.3-.3-1.6-.1-1.7 1.3-.5 2.1 1.8 3.3.6 1.5-1.5-1.2-1.4-1.1-1.6.5-1.3 1 .2 2.4 1.2 3 2.1zM21 39.3c0 .6.7 1.9 1.7 2.9 1.5 1.7 1.5 1.8-.1 1.8-3.1 0-5.6-2-5.6-4.4 0-1.9.4-2.3 2-1.9 1.1.3 2 1 2 1.6zm15.6 4c-.4 1.6-1.6 2.7-3.2 3.1-3.3.9-3.9.3-1.9-1.8.9-.9 1.4-2 1-2.5-.3-.5.5-1.1 1.7-1.3 3-.5 3.2-.3 2.4 2.5zm-22.9 7.3c.9 2.4-2.4 4.6-4.9 3.3-1.4-.8-1.6-1.4-.8-2.9 1.3-2.4 4.8-2.6 5.7-.4zm3.8.3c.3.5.1 1.2-.5 1.6-.5.3-1-.1-1-.9 0-1.8.6-2.1 1.5-.7zM5 52.5c0 .9-.6 1.2-1.5.9-.8-.4-1.5-1-1.5-1.5s.7-.9 1.5-.9 1.5.7 1.5 1.5z"></path></svg><svg fill="#000000;" width="false" height="false" id="topography" y="0"><path class="path1" d="M34 16.9c-2.5 5.3-2.9 5.8-4.6 4.1-.7-.7-1.9-.4-3.7 1-1.5 1.2-3.4 2-4.4 1.8-1.3-.2-4.1 3.1-10.3 12.4-4.7 7-9.1 12.7-9.7 12.8-.7 0-1.3.7-1.3 1.5 0 2.4 15.9 2.1 20-.4 3.1-1.8 3.2-1.8 7.1.3 3.7 2 4.1 2 6.7.5 2.4-1.4 3.1-1.4 4.7-.3 2.8 2 25.5 2 25.5 0 0-.8-.4-1.6-.8-1.8s-4.8-7.7-9.6-16.8c-4.9-9.1-9.3-17.1-10-17.7-.6-.7-2.5-1.5-4.2-1.9-2.8-.5-3.1-.3-5.4 4.5zm9.1 2.8l2.1 3.3h-2.4c-1.3 0-2.9.5-3.6 1.2-.9 1-1.6.9-2.8-.4-1.5-1.5-1.5-1.9.2-4.7 2.3-3.8 3.8-3.6 6.5.6zM30.3 28c2.4 3.9 1.2 5.9-1.7 3.1L26.4 29l-2.8 2.9c-2.4 2.5-3.2 2.8-4.7 1.8-1.7-1-1.7-1.2.2-3.9 1.3-1.7 3-2.8 4.4-2.8 1.3 0 2.7-.5 3-1 1-1.7 2-1.2 3.8 2zm5.7-.5c1.6 1.9 2.9 1.9 5 0 2.9-2.6 6.2-.4 10 6.7 1.8 3.4 4.4 8.2 5.7 10.5l2.5 4.3H48.3l-7.7-11.5C36.4 31.2 33.4 26 33.9 26s1.4.7 2.1 1.5zm-3.3 8.2c1.6-1.5 2-1.2 6.5 5.5 2.6 4 4.5 7.4 4.3 7.7-.3.2-2-.4-3.8-1.4-3-1.6-3.6-1.6-6.2-.2-2.7 1.4-3.2 1.3-6.7-.6l-3.6-2.2-4 2.3C15.7 48.7 7 50 7 48.5c0-.3 2-3.5 4.3-7 4.3-6.4 4.4-6.5 6.2-4.5 2.5 2.7 3.9 2.5 6.7-.9l2.3-2.9 2.3 2.1c2.1 1.9 2.4 2 3.9.4z"></path></svg></svg>