<svg fill="#000000;" xmlns="http://www.w3.org/2000/svg">
<path class="path1" d="M19.3 2c-6.8 2.8-15.4 11.9-17.8 19-2.4 7.2-1.8 18.9 1.3 25.2 3 6 9 12 15 15 6.8 3.3 21.6 3.3 28.4 0 6-3 12-9 15-15 3.2-6.5 3.7-18.2 1.2-25.4-2.3-6.2-10-15-15.8-18-6.1-3.2-20.2-3.6-27.3-0.8zM40.9 4.1l3.2 1.1-4.2 3.6c-2.9 2.5-5.4 3.7-7.8 3.9-4.2 0.3-6.5 2.7-5 5.4 1.1 2.2-0.1 2.5-3.2 0.9-1.6-0.9-6.9-9.7-6.9-11.5 0-0.3 1.9-1.5 4.3-2.5 4.8-2.2 14.6-2.6 19.6-0.9zM52.5 11.7c11.3 10.9 11.3 29.5 0 40.8-6.2 6.2-10.9 8-20.5 8s-14.3-1.8-20.5-8c-5.5-5.6-7.8-10.9-8.2-19.5-0.4-6.9-0.2-8 2.9-13.9 1.8-3.5 4.3-7 5.4-7.8 2-1.3 2.3-1.1 5.2 3.9 2.9 5.3 5.3 7.1 10.2 8.2 2.8 0.6 5 5 5 10 0 1.5 1 4.4 2.2 6.5 2 3.5 2.1 4.2 0.9 7.9-2.3 7 0.2 9.1 6.3 5.3 4.5-2.8 11.3-11.5 12-15.5 0.6-3 0.1-4.2-3-8.3-3.5-4.6-9.4-8-11.5-6.7-0.5 0.3-1.6-0.2-2.5-1.1-1.5-1.5-1.5-1.7 0.5-3.1 1.1-0.8 2.1-2.1 2.1-2.9 0-1.6 6.6-7.5 8.4-7.5 0.7 0 3 1.7 5.1 3.7zM38.9 26c4.2 0 5.5 0.9 9.3 6 2.3 3.2 2.5 3.9 1.3 6.5-1.5 3.6-9.6 12.5-11.4 12.5-0.8 0-0.9-0.5-0.1-1.9 1.5-3 1.2-8.2-0.7-10.3-0.9-1.1-2-4.2-2.4-7.1-0.3-2.9-0.9-6.1-1.3-7.2-0.7-1.8-0.6-1.8 0.4-0.3 0.7 1.2 2.4 1.8 4.9 1.8z"></path>


</svg>
