<svg fill="#000000;" xmlns="http://www.w3.org/2000/svg">
<path class="path1" d="M24.3 8.9c-3.5 4.9-6.3 9.1-6.3 9.5 0 0.3 0.9 0.6 2 0.6 1.8 0 1.2 1.3-4 9-7.9 11.7-8 12-4.1 12 1.7 0 3.1 0.2 3.1 0.4s-2 3.9-4.5 8.2c-2.5 4.4-4.5 8.5-4.5 9.1 0 1.6 1.4 1.6 12.5-0.2 12.8-2.1 12.5-2.2 12.5 2.5 0 2.2 0.5 4 1 4 0.6 0 1-1.8 1-4 0-4.7-0.3-4.6 12.5-2.5 11.1 1.8 12.5 1.8 12.5 0.2 0-0.6-2-4.7-4.5-9.1-2.5-4.3-4.5-8-4.5-8.2s1.4-0.4 3.1-0.4c3.9 0 3.8-0.3-4.1-12-5.2-7.7-5.8-9-4-9 1.1 0 2-0.3 2-0.6 0-1.7-12.7-18.3-14-18.3-0.8 0-4.3 4-7.7 8.8zM37.7 10.8c3.1 4.4 4 6.2 2.9 6.2-2.7 0-1.8 2.1 4.4 11.5l6 9-3 0.3c-1.6 0.2-3 0.5-3 0.8s2.1 4.1 4.6 8.5c2.6 4.4 4.4 8.2 4.1 8.5-0.6 0.6-18.3-1.8-19.9-2.7-0.8-0.5-0.2-1.6 2-3.4 1.8-1.5 3.2-3.1 3.2-3.6 0-1.4-2.2-1-4.2 0.8-1.7 1.5-1.8 1.5-1.8-1.5 0-2.1 0.9-3.8 3-5.5 1.7-1.4 3-3 3-3.6 0-1.5-0.6-1.4-3.5 0.5-2.5 1.6-2.5 1.6-2.5-1.4 0-2.3 0.9-3.7 3.2-5.6 2.4-1.8 3-2.8 2.2-3.6s-1.4-0.6-2.4 0.5c-2.2 2.6-3 1.7-3-3.5 0-2.8-0.4-5-1-5-0.5 0-1 2.2-1 5 0 5.2-0.8 6.1-3 3.5-1-1.1-1.6-1.3-2.4-0.5s-0.2 1.8 2.2 3.6c2.3 1.9 3.2 3.3 3.2 5.6 0 3 0 3-2.5 1.4-2.9-1.9-3.5-2-3.5-0.5 0 0.6 1.3 2.2 3 3.6 2.1 1.7 3 3.4 3 5.5 0 3-0.1 3-1.8 1.5-2-1.8-4.2-2.2-4.2-0.8 0 0.5 1.4 2.1 3.2 3.6 2.2 1.8 2.8 2.9 2 3.4-1.6 0.9-19.3 3.3-19.9 2.7-0.3-0.3 1.5-4.1 4.1-8.5 2.5-4.4 4.6-8.2 4.6-8.5s-1.4-0.6-3-0.8l-3-0.3 6-9c6.2-9.4 6.9-11.1 4.6-11.7-1-0.2 0-2.2 3.1-6.6 2.5-3.5 5-6.1 5.5-6 0.6 0.2 3 3.2 5.5 6.6z"></path>
</svg>
