<svg fill="#000000;" xmlns="http://www.w3.org/2000/svg">
<path class="path1" d="M11 19.5c0 10.4 0.2 12.5 1.5 12.5s1.5-2.1 1.5-12.5c0-10.4-0.2-12.5-1.5-12.5s-1.5 2.1-1.5 12.5z"></path>
            <path class="path2" d="M31 12c0 3.7 0.4 5 1.3 4.7 0.7-0.2 1.2-2.1 1.2-4.7s-0.5-4.5-1.2-4.8c-0.9-0.2-1.3 1.1-1.3 4.8z"></path>
            <path class="path3" d="M50 17.5c0 8.7 0.3 10.5 1.5 10.5s1.5-1.8 1.5-10.5c0-8.7-0.3-10.5-1.5-10.5s-1.5 1.8-1.5 10.5z"></path>
            <path class="path4" d="M21 20c-2.7 2.7-2.5 5.6 0.5 8.5 1.6 1.7 3.5 2.5 6 2.5h3.5v13.1c0 10 0.3 13 1.3 12.6 0.9-0.3 1.2-3.8 1.2-13v-12.5l3.7-0.4c2.4-0.2 3.4 0 2.8 0.6s-1 2.5-1 4.2c0 5 2.8 6.4 12.5 6.4 9.8 0 12.5-1.4 12.5-6.5 0-5-2.8-6.5-12.2-6.5h-7.7l0.6-3.4c0.4-2.6 0-3.9-1.6-5.5-1.8-1.8-3.3-2.1-11.1-2.1-7.7 0-9.3 0.3-11 2zM40.5 22.4c1.1 0.8 1.6 1.9 1.2 3-0.9 2.3-18.2 2.4-19.1 0.1-0.3-0.8 0.2-2.1 1-3 2-2 14.2-2.1 16.9-0.1zM59.1 33c1 0.6 1.9 1.7 1.9 2.5s-0.9 1.9-1.9 2.5c-2.5 1.3-12.7 1.3-15.2 0-2.4-1.3-2.5-3.6-0.1-4.9 2.2-1.4 12.8-1.4 15.3-0.1z"></path>
            <path class="path5" d="M1.6 35.6c-1.9 1.8-2.1 7.5-0.4 9.2 1.9 1.9 20.2 1.6 22.2-0.4s2-6.8 0-8.8c-2.2-2.3-19.6-2.3-21.8 0zM21 38.5c0.7 0.8 1 2.2 0.6 3-0.5 1.3-2.2 1.5-9.3 1.3-7.7-0.3-8.8-0.5-9.1-2.2-0.6-2.8 1.5-3.6 9.4-3.6 5.1 0 7.5 0.4 8.4 1.5z"></path>
            <path class="path6" d="M50 50c0 5.6 0.3 7 1.5 7s1.5-1.4 1.5-7c0-5.6-0.3-7-1.5-7s-1.5 1.4-1.5 7z"></path>
            <path class="path7" d="M11 52c0 3.8 0.4 5 1.5 5s1.5-1.2 1.5-5c0-3.8-0.4-5-1.5-5s-1.5 1.2-1.5 5z"></path>
</svg>
