<svg xmlns="http://www.w3.org/2000/svg" viewBox="0 0 90 90">
    <path class="path1" d="M22.1 1.7c-5.3 2.7-10 8.1-11.6 13.6-3.3 11-1.5 16.4 10.9 34.6 5.4 7.8 10.1 14.1 10.6 14.1s5.4-6.6 10.9-14.6c11.6-16.9 13.3-21.7 11.3-31.2-1.4-6.7-4.4-11.4-9.7-14.9-5.2-3.5-17-4.4-22.4-1.6zM42.1 6c7.6 5 11.1 14.6 8.6 23.1-1.3 4.3-17.2 28.9-18.7 28.9s-17.4-24.6-18.7-28.8c-1-3.7-1.1-5.8-0.3-9.9 1.5-7.1 4-10.2 11.4-14.6 4.3-2.5 12.9-1.9 17.7 1.3z"></path>
    <path class="path2" d="M26.2 16.3c-4.4 4.7-2.1 12.7 4.2 14.3 5.4 1.3 11.5-4.8 10.2-10.2-1.6-6.4-10-8.8-14.4-4.1zM35.1 18c2.3 1.3 2.6 6.2 0.5 7.9-4.6 3.8-11.1-2.5-7.1-6.9 2-2.2 3.7-2.5 6.6-1z"></path>
</svg>
