<svg fill="#000000;" xmlns="http://www.w3.org/2000/svg">
<path class="path1" d="M22.5 5.7c-4.3 2.2-8.2 6.1-9.5 9.4-0.7 1.6-1.7 2.9-2.2 2.9-2.6 0-8 3.6-9.3 6.1-2.4 4.6-1.9 11.2 1 14.8 3.7 4.3 11.5 6.5 11.5 3.1 0-0.5-1.3-1.1-2.9-1.5-7.9-1.7-10.8-10.9-5.2-16.6 1.7-1.7 4-2.9 5.5-2.9 1.4 0 2.6-0.4 2.6-0.8 0-0.5 1.3-2.9 3-5.3 5.3-8.1 15.1-10.3 22.6-5.3 5.4 3.6 5.7 4.5 2.4 6.5-5.9 3.6-5.1 6.4 0.9 3.1 4.5-2.6 8.1-2.8 12-0.8 5.9 3.1 8.1 10.9 4.6 16.2-1.9 2.9-7.2 6.4-9.8 6.4-1.1 0-1.7 0.5-1.4 1.2 0.6 1.7 6.5 1.2 9.5-0.8 5.8-3.8 8.1-14.3 4.5-20.4-1.9-3.3-8-7-11.5-7-1.5 0-3.2-1.1-4.6-3-4.8-6.4-16.6-9.1-23.7-5.3z"></path>
            <path class="path2" d="M19.1 44.1c-1.4 4.2-1.4 4.9 0.3 4.9 1.2 0 3.6-4.7 3.6-7.1 0-2.3-2.9-0.5-3.9 2.2z"></path>
            <path class="path3" d="M29 43.6c-1.4 3.5-1.2 5.4 0.4 5.4 1.4 0 2.6-2.9 2.6-6.3 0-2.6-1.9-2.1-3 0.9z"></path>
            <path class="path4" d="M38.4 44.5c-0.3 2-0.4 3.9 0 4.2 1 1.1 2.5-1 3.2-4.5 0.5-2.5 0.3-3.2-0.9-3.2-1 0-1.8 1.3-2.3 3.5z"></path>
            <path class="path5" d="M15.4 55.5c-0.3 2-0.4 3.9 0 4.2 1 1.1 2.5-1 3.2-4.5 0.5-2.5 0.3-3.2-0.9-3.2-1 0-1.8 1.3-2.3 3.5z"></path>
            <path class="path6" d="M25.6 53.7c-0.2 1-0.7 2.8-1.1 4-1 3.7 2.1 2.8 3.4-0.8 1.4-4.2 1.4-4.9-0.3-4.9-0.8 0-1.7 0.8-2 1.7z"></path>
            <path class="path7" d="M35.7 52.7c-0.3 0.5-0.8 2.3-1.2 4.1-0.5 2.4-0.3 3.2 0.8 3.2 1.4 0 3.9-6.4 2.9-7.4-0.8-0.8-2-0.7-2.5 0.1z"></path>

</svg>
