<svg fill="#000000;" xmlns="http://www.w3.org/2000/svg">
<path class="path1" d="M21.4 1.1c-0.2 0.4 0.1 2 0.7 3.6 0.6 1.5 1.2 5.1 1.3 8 0.2 5.2 0.2 5.3-6 11.3-7.6 7.5-10.5 13.2-10.6 20.9-0.1 8.6 4.5 15.4 12.1 18 4.4 1.4 21.8 1.4 26.2 0 7.6-2.6 12.2-9.4 12.1-18-0.1-7.7-3-13.4-10.5-20.8-6.2-6-6.3-6.2-6.1-11.4 0.1-2.8 0.4-6.8 0.8-8.8l0.7-3.5h-10.1c-5.6 0-10.3 0.3-10.6 0.7zM37.9 6.5c-0.5 1.6-0.9 3.1-0.9 3.2 0 0.2-0.4 0.3-1 0.3-0.5 0-1-1-1-2.1 0-1.8-0.2-1.9-1.5-0.9-1.2 1-1.8 1-3 0-1.3-1-1.5-0.9-1.5 0.9 0 1.1-0.4 2.1-0.9 2.1-1.2 0-1.7-0.8-2.4-4-0.6-2.5-0.6-2.5 6.2-2.5h6.8l-0.8 3zM35.3 13.7c-1.8 0.2-4.8 0.2-6.5 0-1.8-0.2-0.4-0.4 3.2-0.4s5 0.2 3.3 0.4zM29 20c0.5 0 1.4-0.8 2-1.8 1-1.6 1-1.6 2 0 1.3 2.2 3 2.3 3 0.3 0-2.2 15 14.3 16.7 18.3 3.3 7.9 1.3 16.9-4.7 21.2-6.8 4.9-25.2 4.9-32 0-6-4.2-8-13.2-4.8-21 1.7-4.1 16.2-20 16.6-18.3 0.2 0.7 0.7 1.3 1.2 1.3z"></path>
            <path class="path2" d="M23.6 28.9c-4.6 3-6.6 7-6.6 12.9 0 9.6 5.6 15.2 15 15.2s15-5.6 15-15.2c0-9.3-5.5-14.8-15-14.8-3.7 0-6.4 0.6-8.4 1.9zM38.7 31.7c10.1 6.6 5.4 22.6-6.7 22.6-11 0-16.3-12.9-8.5-20.7 4.7-4.7 9.8-5.4 15.2-1.9z"></path>
            <path class="path3" d="M31 32.8c0 0.4-1 1.2-2.2 1.7-2.6 1.1-3.5 4.9-1.8 7 0.6 0.7 2.6 1.6 4.5 1.9 2.1 0.4 3.5 1.3 3.5 2.1 0 2-5.6 2-6.4 0-0.8-2.3-2.8-1.8-2.4 0.6 0.2 1.2 1.2 2.7 2.3 3.3s2.3 1.5 2.8 2.1c0.5 0.7 1 0.7 1.5 0 0.4-0.6 1.6-1.5 2.7-2.1 2.3-1.3 3.1-4.9 1.5-6.9-0.6-0.7-2.6-1.6-4.5-1.9-2.1-0.4-3.5-1.3-3.5-2.1 0-2 5.6-2 6.4 0 0.9 2.3 2.8 1.8 2.4-0.8-0.2-1.2-1.3-2.6-2.5-3.2-1.3-0.5-2.3-1.3-2.3-1.7 0-0.5-0.4-0.8-1-0.8-0.5 0-1 0.3-1 0.8z"></path>
</svg>
