<svg fill="#000000;" xmlns="http://www.w3.org/2000/svg">
<path class="path1" d="M4 4.5c0 3.8-0.3 4.5-2 4.5-1.1 0-2 0.7-2 1.5s0.9 1.5 2 1.5c1.6 0 2 0.7 2 3.5s-0.4 3.5-2 3.5c-1.1 0-2 0.7-2 1.5s0.9 1.5 2 1.5c1.5 0 2 0.7 2 2.9 0 2-0.6 3-2 3.4-2.6 0.7-2.6 2.7 0 2.7 1.6 0 2 0.7 2 3.5s-0.4 3.5-2 3.5c-1.1 0-2 0.7-2 1.5s0.9 1.5 2 1.5c1.6 0 2 0.7 2 3.5s-0.4 3.5-2 3.5c-1.1 0-2 0.7-2 1.5s0.9 1.5 2 1.5c1.7 0 2 0.7 2 4.5v4.5h8c7.3 0 8 0.2 8 2 0 1.1 0.7 2 1.5 2s1.5-0.9 1.5-2c0-1.9 0.7-2 11-2s11 0.1 11 2c0 1.1 0.7 2 1.5 2s1.5-0.9 1.5-2c0-1.8 0.7-2 8-2 6.4 0 8-0.3 8-1.5 0-1.3-3.8-1.5-28.5-1.5h-28.5v-28.5c0-24.7-0.2-28.5-1.5-28.5-1.1 0-1.5 1.2-1.5 4.5z"></path>
            <path class="path2" d="M35.7 9.7c-0.4 0.3-0.7 10.9-0.7 23.5 0 19.6 0.2 22.8 1.5 22.8s1.5-3.1 1.5-22v-22h7v22c0 18.9 0.2 22 1.5 22s1.5-2.6 1.5-17v-17h8v17c0 14.4 0.2 17 1.5 17s1.5-2.7 1.5-18.5v-18.5h-11v-10h-5.8c-3.2 0-6.2 0.3-6.5 0.7z"></path>
            <path class="path3" d="M9.7 28.6c-0.4 0.4-0.7 6.7-0.7 14.1 0 11.2 0.2 13.3 1.5 13.3s1.5-2.1 1.5-12.5v-12.5h8v12.5c0 10.4 0.2 12.5 1.5 12.5 1.2 0 1.5-1.5 1.5-7.5v-7.5h7v7.5c0 6 0.3 7.5 1.5 7.5s1.5-1.7 1.5-9v-9h-9.9l-0.3-4.8-0.3-4.7-6-0.3c-3.4-0.2-6.4 0-6.8 0.4z"></path>

</svg>
