<svg fill="#000000;" xmlns="http://www.w3.org/2000/svg">
    <path class="path1" d="M36.7 7.7c-2.7 0.7-4.1 5.1-2.4 7.7 1.2 1.8 1.2 2.4 0 4.2-2.8 4.3 1.6 9.5 6.7 7.9 1.7-0.5 2-0.2 2 2.4 0 2.9-0.2 3-3 2.4-2.2-0.4-3-0.2-3 0.9 0 1.9 2 3.8 4.2 3.8 1.6 0 1.8 0.9 1.8 7.5v7.5h-7c-5.5 0-6.8-0.3-6.4-1.4 0.3-0.8 2.1-1.7 4-2 3.8-0.8 5.4-3 5.4-7.5 0-3.5-1.2-4.5-3.7-3.2-1 0.5-3 1.4-4.5 2-2.6 1-2.8 1.5-2.8 6.2 0 7-1.4 5.3-2-2.4-0.5-6-0.6-6.1-3.7-6.8-1.8-0.3-3.9-1.1-4.6-1.8-1.9-1.5-2.7-0.4-2.7 3.5 0 5 0.9 6.3 4.8 7s5.2 1.8 5.2 4.6c0 2.5-3.8 2.3-5.8-0.2-1.9-2.3-7.8-2.9-14.7-1.3-4.1 0.9-5.8 3.4-3.6 5.6 2 2 15.7 2.5 17.5 0.7 0.6-0.6 10.2-1 23.3-1 14.2 0 22.3-0.4 22.3-1s-4-1-10-1c-9.7 0-10-0.1-10-2.3 0-1.6 0.9-2.6 3-3.4 1.7-0.6 3-1.9 3-2.8 0-1.3-0.7-1.6-3-1.3l-3 0.5v-8.4c0-8.1 0.1-8.3 2-7.3 4.9 2.6 9.7-2.8 6.6-7.5-0.9-1.4-1.2-2.5-0.7-2.5 1.2 0 2.2-4.5 1.5-6.5-1.1-2.6-5.3-3.8-7.8-2.1-1.9 1.2-2.5 1.2-4.1 0-1-0.8-2.1-1.3-2.4-1.3-0.3 0.1-1.4 0.3-2.4 0.6zM40.8 10.2c0.7 0.7 1.2 1.8 1.2 2.6 0 1.2-0.3 1.2-1.5 0.2-2-1.7-3.2-0.5-1.5 1.5 1 1.3 0.9 1.5-0.9 1.5-1.1 0-2.1-0.2-2.1-0.4s-0.3-1.1-0.6-1.9c-0.5-1.4 1.9-4.7 3.5-4.7 0.4 0 1.2 0.5 1.9 1.2zM50.4 10.6c2 1.9 2 2.9 0 4.8-1.9 2-4 1-2.3-1 1.6-1.9 0.4-3-1.6-1.4-1.2 1-1.5 1-1.5-0.2 0-1.5 1.9-3.8 3.1-3.8 0.4 0 1.5 0.7 2.3 1.6zM44.4 18.1c-0.3 0.5-1 0.7-1.5 0.3-0.5-0.3-0.7-1-0.3-1.5 0.3-0.5 1-0.7 1.5-0.3 0.5 0.3 0.7 1 0.3 1.5zM39 20.5c-1.6 2-0.5 3.2 1.4 1.6 2-1.7 3 0.4 1 2.3-0.8 0.9-1.9 1.6-2.4 1.6-1 0-4-2.9-4-3.9 0-1.2 2.3-3.1 3.8-3.1 1.2 0 1.2 0.3 0.2 1.5zM51.4 21.2c0.8 1.4 0.7 2.2-0.7 3.5-2 2.1-5 0.9-5.6-2.3-0.3-1.6-0.1-1.7 1.3-0.5 2.1 1.8 3.3 0.6 1.5-1.5-1.2-1.4-1.1-1.6 0.5-1.3 1 0.2 2.4 1.2 3 2.1zM21 39.3c0 0.6 0.7 1.9 1.7 2.9 1.5 1.7 1.5 1.8-0.1 1.8-3.1 0-5.6-2-5.6-4.4 0-1.9 0.4-2.3 2-1.9 1.1 0.3 2 1 2 1.6zM36.6 43.3c-0.4 1.6-1.6 2.7-3.2 3.1-3.3 0.9-3.9 0.3-1.9-1.8 0.9-0.9 1.4-2 1-2.5-0.3-0.5 0.5-1.1 1.7-1.3 3-0.5 3.2-0.3 2.4 2.5zM13.7 50.6c0.9 2.4-2.4 4.6-4.9 3.3-1.4-0.8-1.6-1.4-0.8-2.9 1.3-2.4 4.8-2.6 5.7-0.4zM17.5 50.9c0.3 0.5 0.1 1.2-0.5 1.6-0.5 0.3-1-0.1-1-0.9 0-1.8 0.6-2.1 1.5-0.7zM5 52.5c0 0.9-0.6 1.2-1.5 0.9-0.8-0.4-1.5-1-1.5-1.5s0.7-0.9 1.5-0.9c0.8 0 1.5 0.7 1.5 1.5z"></path>
</svg>
