<svg fill="#000000;" xmlns="http://www.w3.org/2000/svg">
<path class="path1" d="M34 16.9c-2.5 5.3-2.9 5.8-4.6 4.1-0.7-0.7-1.9-0.4-3.7 1-1.5 1.2-3.4 2-4.4 1.8-1.3-0.2-4.1 3.1-10.3 12.4-4.7 7-9.1 12.7-9.7 12.8-0.7 0-1.3 0.7-1.3 1.5 0 2.4 15.9 2.1 20-0.4 3.1-1.8 3.2-1.8 7.1 0.3 3.7 2 4.1 2 6.7 0.5 2.4-1.4 3.1-1.4 4.7-0.3 2.8 2 25.5 2 25.5 0 0-0.8-0.4-1.6-0.8-1.8s-4.8-7.7-9.6-16.8c-4.9-9.1-9.3-17.1-10-17.7-0.6-0.7-2.5-1.5-4.2-1.9-2.8-0.5-3.1-0.3-5.4 4.5zM43.1 19.7l2.1 3.3h-2.4c-1.3 0-2.9 0.5-3.6 1.2-0.9 1-1.6 0.9-2.8-0.4-1.5-1.5-1.5-1.9 0.2-4.7 2.3-3.8 3.8-3.6 6.5 0.6zM30.3 28c2.4 3.9 1.2 5.9-1.7 3.1l-2.2-2.1-2.8 2.9c-2.4 2.5-3.2 2.8-4.7 1.8-1.7-1-1.7-1.2 0.2-3.9 1.3-1.7 3-2.8 4.4-2.8 1.3 0 2.7-0.5 3-1 1-1.7 2-1.2 3.8 2zM36 27.5c1.6 1.9 2.9 1.9 5 0 2.9-2.6 6.2-0.4 10 6.7 1.8 3.4 4.4 8.2 5.7 10.5l2.5 4.3h-10.9l-7.7-11.5c-4.2-6.3-7.2-11.5-6.7-11.5s1.4 0.7 2.1 1.5zM32.7 35.7c1.6-1.5 2-1.2 6.5 5.5 2.6 4 4.5 7.4 4.3 7.7-0.3 0.2-2-0.4-3.8-1.4-3-1.6-3.6-1.6-6.2-0.2-2.7 1.4-3.2 1.3-6.7-0.6l-3.6-2.2-4 2.3c-3.5 1.9-12.2 3.2-12.2 1.7 0-0.3 2-3.5 4.3-7 4.3-6.4 4.4-6.5 6.2-4.5 2.5 2.7 3.9 2.5 6.7-0.9l2.3-2.9 2.3 2.1c2.1 1.9 2.4 2 3.9 0.4z"></path>
</svg>
